<?xml version="1.0" encoding="UTF-8"?><svg id="Layer_1" xmlns="http://www.w3.org/2000/svg" xmlns:xlink="http://www.w3.org/1999/xlink" viewBox="0 0 2500 2500"><defs><style>.cls-1{fill:none;}.cls-2{fill:url(#linear-gradient);}.cls-3{clip-path:url(#clippath);}.cls-4{fill:#f2dfd5;}.cls-5{fill:#fab62f;}.cls-6{fill:#f8ede7;}.cls-7{fill:#ed6872;}.cls-8{fill:#e6cbbf;}.cls-9{fill:#0a8cbf;}.cls-10{fill:#41556b;}.cls-11{fill:#18a3d9;}.cls-12{fill:#536880;}</style><clipPath id="clippath"><circle class="cls-1" cx="1250" cy="1250" r="1219.9"/></clipPath><linearGradient id="linear-gradient" x1="739.74" y1="1070.78" x2="2848.09" y2="1882.66" gradientTransform="matrix(1, 0, 0, 1, 0, 0)" gradientUnits="userSpaceOnUse"><stop offset="0" stop-color="#301b00" stop-opacity=".2"/><stop offset=".08" stop-color="#372001" stop-opacity=".23"/><stop offset=".19" stop-color="#4a2f06" stop-opacity=".31"/><stop offset=".34" stop-color="#6a470d" stop-opacity=".43"/><stop offset=".51" stop-color="#966a17" stop-opacity=".61"/><stop offset=".7" stop-color="#ce9424" stop-opacity=".83"/><stop offset=".83" stop-color="#fab62f"/></linearGradient></defs><g class="cls-3"><g><rect class="cls-5" x="-206.54" y="-224.32" width="2963.15" height="2963.15"/><polyline class="cls-2" points="2028.71 722.76 497.35 1821.82 2756.62 2677.71 2756.62 1080.8"/><g id="Case_Study"><g><g><path class="cls-10" d="M1411.33,1822.81c0,24.7-20,44.67-44.71,44.67h-184.81c-24.71,0-44.71-19.97-44.71-44.67h0c0-24.71,20.01-44.75,44.71-44.75h184.81c24.71,0,44.71,20.04,44.71,44.75h0Z"/><path class="cls-12" d="M1274.1,1778.06h-92.29c-24.71,0-44.71,20.04-44.71,44.75s20.01,44.67,44.71,44.67h92.29v-89.42Z"/></g><path class="cls-12" d="M2079.12,1778.06c0,26.39-21.34,47.73-47.69,47.73H517.01c-26.35,0-47.69-21.34-47.69-47.73V809.66c0-26.39,21.34-47.73,47.69-47.73H2031.42c26.35,0,47.69,21.34,47.69,47.73v968.4Z"/><path class="cls-10" d="M2031.42,761.93h-756.48V1825.79h756.48c26.35,0,47.69-21.34,47.69-47.73V809.66c0-26.39-21.34-47.73-47.69-47.73Z"/><g><path class="cls-8" d="M1274.25,1766.36c-112.75-81.61-736.55,30.98-736.55,30.98V761.54s606.32-132.49,736.55,0v1004.81Z"/><path class="cls-8" d="M1274.18,1766.36c123.96-84.9,736.55,30.98,736.55,30.98V761.54s-606.32-132.49-736.55,0v1004.81Z"/></g><g><polygon class="cls-9" points="1340.15 1676.56 1340.15 1812.86 1398.1 1773.7 1457.65 1812.86 1457.65 1676.56 1340.15 1676.56"/><polygon class="cls-11" points="1398.17 1676.56 1340.15 1676.56 1340.15 1812.86 1398.1 1773.7 1398.17 1773.78 1398.17 1676.56"/></g><g><g><path class="cls-4" d="M1285.54,713.2c-4.02,3.06-7.92,6.2-11.32,9.56-3.94-3.98-8.37-7.65-13.16-11.09V1757.03c4.86,2.83,9.25,5.81,13.12,9.02v.08c0-.08,.04-.08,.04-.08,0,0,.04,0,.04,.08v-.08c3.33-2.75,7.23-5.28,11.28-7.72V713.2Z"/><path class="cls-4" d="M1274.25,1766.13c-122.54-101.35-754.53,0-754.53,0V722.76s621.13-133.41,754.53,0V1766.13Z"/><path class="cls-6" d="M895.11,668.68c-189.97,14.38-375.39,54.08-375.39,54.08V1766.13s185.76-29.76,375.39-40.85V668.68Z"/><path class="cls-7" d="M672.52,1135.82c-18.97,0-35.61-13.77-38.67-33.12-3.33-21.34,11.24-41.38,32.62-44.75,125.07-19.66,303.11-40.62,440.91-28.69,21.57,1.84,37.52,20.81,35.64,42.38-1.87,21.49-20.58,37.79-42.38,35.64-130-11.09-301.27,9.03-422.01,28-2.06,.38-4.09,.53-6.12,.53Zm6.12,143.12c120.74-18.97,292.01-39.16,422.01-28.07,21.8,2.07,40.5-14.07,42.38-35.64,1.88-21.49-14.08-40.46-35.64-42.38-137.8-11.86-315.84,9.02-440.91,28.68-21.38,3.36-35.95,23.4-32.62,44.82,3.06,19.28,19.7,33.05,38.67,33.05,2.03,0,4.06-.16,6.12-.46Zm0,143.58c120.74-18.97,292.01-39.16,422.01-28,21.8,1.91,40.5-14.15,42.38-35.64,1.88-21.57-14.08-40.54-35.64-42.38-137.8-12.01-315.84,9.03-440.91,28.68-21.38,3.29-35.95,23.41-32.62,44.75,3.06,19.28,19.7,33.05,38.67,33.05,2.03,0,4.06-.15,6.12-.46Zm0,143.58c120.74-18.97,292.01-39.16,422.01-28,21.8,2.14,40.5-14.15,42.38-35.64,1.88-21.57-14.08-40.54-35.64-42.38-137.8-11.86-315.84,9.03-440.91,28.69-21.38,3.36-35.95,23.4-32.62,44.75,3.06,19.36,19.7,33.12,38.67,33.12,2.03,0,4.06-.15,6.12-.53Z"/><polygon class="cls-4" points="843.21 936.94 650.76 960.58 650.11 807.21 842.56 783.57 843.21 936.94"/></g><g><path class="cls-6" d="M1274.18,1766.13c122.55-101.35,754.53,0,754.53,0V722.76s-621.13-133.41-754.53,0V1766.13Z"/><path class="cls-4" d="M1653.32,668.68c189.97,14.38,375.39,54.08,375.39,54.08V1766.13s-185.76-29.76-375.39-40.85V668.68Z"/><path class="cls-7" d="M1869.79,1135.29c-120.75-18.97-292.01-39.09-422.01-28-21.8,2.14-40.5-14.15-42.38-35.64-1.87-21.57,14.08-40.54,35.65-42.38,137.8-11.93,315.84,9.03,440.91,28.69,21.38,3.36,35.95,23.4,32.62,44.75-3.06,19.36-19.7,33.12-38.67,33.12-2.03,0-4.05-.15-6.12-.53Zm6.12,144.11c18.97,0,35.61-13.77,38.67-33.05,3.33-21.42-11.24-41.46-32.62-44.82-125.07-19.66-303.11-40.54-440.91-28.68-21.57,1.91-37.52,20.88-35.65,42.38,1.88,21.57,20.58,37.71,42.38,35.64,130-11.09,301.26,9.11,422.01,28.07,2.06,.31,4.09,.46,6.12,.46Zm0,143.58c18.97,0,35.61-13.77,38.67-33.05,3.33-21.34-11.24-41.46-32.62-44.75-125.07-19.66-303.11-40.69-440.91-28.68-21.57,1.84-37.52,20.81-35.65,42.38,1.88,21.49,20.58,37.55,42.38,35.64,130-11.17,301.26,9.03,422.01,28,2.06,.31,4.09,.46,6.12,.46Zm0,143.65c18.97,0,35.61-13.77,38.67-33.12,3.33-21.34-11.24-41.38-32.62-44.75-125.07-19.66-303.11-40.54-440.91-28.69-21.57,1.84-37.52,20.81-35.65,42.38,1.88,21.49,20.58,37.79,42.38,35.64,130-11.17,301.26,9.03,422.01,28,2.06,.38,4.09,.53,6.12,.53Z"/></g></g></g></g></g></g></svg>